<?xml version="1.0" encoding="utf-8"?>
<!-- Generator: Adobe Illustrator 27.3.1, SVG Export Plug-In . SVG Version: 6.00 Build 0)  -->
<svg version="1.1"
	 id="svg8" xmlns:inkscape="http://www.inkscape.org/namespaces/inkscape" xmlns:dc="http://purl.org/dc/elements/1.1/" xmlns:cc="http://creativecommons.org/ns#" xmlns:sodipodi="http://sodipodi.sourceforge.net/DTD/sodipodi-0.dtd" xmlns:rdf="http://www.w3.org/1999/02/22-rdf-syntax-ns#" xmlns:svg="http://www.w3.org/2000/svg"
	 xmlns="http://www.w3.org/2000/svg" xmlns:xlink="http://www.w3.org/1999/xlink" x="0px" y="0px" viewBox="0 0 598.2 597.7"
	 style="enable-background:new 0 0 598.2 597.7;" xml:space="preserve">
<style type="text/css">
	.st0{fill:#241C1C;}
	.st1{fill:none;stroke:#FFFFFF;stroke-width:9.4365;stroke-miterlimit:11.3386;}
	.st2{fill:#FFFFFF;}
	.st3{opacity:0.995;fill:#FFFFFF;enable-background:new    ;}
	.st4{fill:none;stroke:#FFFFFF;stroke-width:36;stroke-linecap:round;stroke-miterlimit:10;}
</style>
<g id="g912" inkscape:export-xdpi="96" inkscape:export-ydpi="96">
	<g id="g845">
		<path id="rect10" class="st0" d="M99.4,1.2h399.7c54.3,0,98.4,44.1,98.4,98.4v399.7c0,54.3-44.1,98.4-98.4,98.4H99.4
			C45.1,597.7,1,553.6,1,499.3V99.6C1,45.3,45.1,1.2,99.4,1.2z"/>
		<path id="rect835" class="st1" d="M132,48.1h334.5c46.4,0,84,37.6,84,84v334.5c0,46.4-37.6,84-84,84H132c-46.4,0-84-37.6-84-84
			V132.2C48,85.8,85.6,48.1,132,48.1z"/>
	</g>
	<g id="g892" transform="matrix(1.0398756,0,0,1.0398775,-67.481076,-3.2656962)">
		<path id="rect883" class="st2" d="M576.5,384.6L576.5,384.6c6.7,6.6,6.7,17.4,0,24.1L470.3,514.8c-6.7,6.6-17.4,6.6-24.1,0l0,0
			c-6.7-6.6-6.7-17.4,0-24.1l106.1-106.1C559,378,569.8,378,576.5,384.6z"/>
		<path id="path885" class="st3" d="M493.8,446.5l14.3-14.3c2.7-2.7,2.7-7.1,0-9.8L452.7,367c-2.7-2.7-7.1-2.7-9.8,0l-14.3,14.3
			c-2.7,2.7-2.7,7.1,0,9.8l55.4,55.3C486.7,449.1,491.1,449.1,493.8,446.5z"/>
		<path id="rect887" class="st2" d="M491.3,299.5L491.3,299.5c6.7,6.6,6.7,17.4,0,24.1L385.2,429.7c-6.7,6.6-17.4,6.6-24.1,0l0,0
			c-6.7-6.6-6.7-17.4,0-24.1l106.1-106.1C473.9,292.9,484.7,292.9,491.3,299.5z"/>
	</g>
</g>
<g>
	<path class="st4" d="M106.5,330.7c0,58.8,37.2,89,83.2,89s83.2-30.2,83.2-89c0-53.6,0-214.5,0-214.5"/>
	<line class="st4" x1="166.3" y1="116.3" x2="368.8" y2="116.3"/>
</g>
</svg>
